<?xml version="1.0" standalone="no"?>
<!DOCTYPE svg PUBLIC "-//W3C//DTD SVG 20010904//EN"
 "http://www.w3.org/TR/2001/REC-SVG-20010904/DTD/svg10.dtd">
<svg version="1.0" xmlns="http://www.w3.org/2000/svg"
 width="500.000000pt" height="500.000000pt" viewBox="0 0 500.000000 500.000000"
 preserveAspectRatio="xMidYMid meet">

<g transform="translate(0.000000,500.000000) scale(0.100000,-0.100000)"
fill="#000000" stroke="none">
<path d="M3831 3584 c-14 -53 -60 -116 -113 -154 -22 -16 -45 -30 -49 -30 -4
0 -20 -5 -36 -11 l-28 -11 38 -13 c92 -32 168 -109 189 -193 l11 -43 17 50
c30 89 101 161 182 186 36 11 40 14 23 20 -103 37 -171 100 -204 189 l-19 51
-11 -41z m-48 -204 c-3 -12 -8 -19 -11 -16 -5 6 5 36 12 36 2 0 2 -9 -1 -20z
m116 -3 c9 -11 1 -14 -40 -14 -28 -1 -48 2 -45 5 3 3 19 5 36 4 16 0 30 4 30
9 0 13 6 11 19 -4z"/>
<path d="M2034 3300 c-32 -13 -72 -67 -80 -105 -19 -102 47 -185 146 -185 95
0 150 54 150 148 0 98 -52 152 -145 151 -27 0 -59 -4 -71 -9z"/>
<path d="M1305 3241 c-92 -33 -215 -88 -215 -97 0 -3 14 -19 30 -34 l30 -28 0
-401 c0 -334 -3 -408 -15 -438 -8 -19 -15 -37 -15 -39 0 -2 76 -4 169 -4 l170
0 -15 28 c-11 21 -14 75 -14 242 0 196 2 218 20 247 32 53 96 57 118 7 19 -40
16 -451 -3 -488 -8 -15 -15 -30 -15 -32 0 -2 77 -4 170 -4 l171 0 -16 30 c-12
23 -15 72 -15 257 0 125 -4 254 -10 285 -18 115 -63 167 -151 176 -83 8 -136
-14 -200 -80 -30 -32 -59 -58 -62 -58 -4 0 -7 95 -7 211 0 206 -6 249 -33 249
-7 0 -48 -13 -92 -29z"/>
<path d="M669 2936 c-146 -39 -240 -156 -262 -327 -9 -66 -8 -88 7 -141 47
-170 191 -278 368 -278 88 0 132 11 186 48 51 34 89 84 103 136 14 52 0 65
-38 36 -94 -69 -257 -27 -396 101 -109 100 -151 219 -101 286 60 80 207 19
269 -113 31 -65 26 -66 142 36 88 77 101 98 82 128 -49 78 -231 123 -360 88z"/>
<path d="M2159 2941 c-56 -18 -239 -104 -239 -113 0 -5 10 -18 23 -28 22 -18
22 -21 22 -282 0 -236 -2 -267 -18 -291 l-17 -27 175 0 175 0 -17 27 c-16 24
-19 64 -23 373 l-5 345 -25 2 c-14 1 -37 -2 -51 -6z"/>
<path d="M2505 2936 c-113 -28 -176 -81 -193 -163 -44 -207 168 -345 482 -313
85 9 102 8 115 -5 11 -11 13 -21 5 -41 -16 -46 -57 -68 -134 -72 -87 -5 -145
12 -261 79 -48 27 -96 49 -107 49 -12 0 -30 -13 -42 -30 -25 -35 -60 -129 -60
-160 0 -65 335 -117 477 -75 139 41 218 172 179 298 -34 112 -122 167 -346
217 -134 30 -182 51 -188 84 -7 32 7 62 33 74 60 28 110 8 230 -92 79 -65 116
-88 167 -100 36 -8 81 31 104 90 23 59 10 85 -57 119 -100 51 -287 70 -404 41z"/>
<path d="M3225 2935 c-78 -28 -235 -100 -235 -108 0 -4 12 -19 28 -32 l27 -23
3 -389 c2 -304 -1 -399 -11 -440 l-14 -53 138 0 c126 0 139 2 149 19 6 12 10
96 10 205 0 102 4 186 8 186 5 0 23 -17 40 -39 39 -49 87 -71 152 -71 115 0
196 54 251 166 28 56 33 78 37 162 12 244 -91 411 -263 429 -63 7 -111 -8
-161 -48 -21 -16 -42 -28 -48 -26 -6 2 -13 19 -16 38 -6 40 -32 47 -95 24z
m244 -120 c50 -43 66 -102 66 -245 0 -184 -31 -250 -115 -250 -76 0 -100 63
-99 260 0 139 8 197 33 235 22 34 74 34 115 0z"/>
<path d="M4074 2936 c-76 -19 -140 -60 -153 -97 -14 -40 -14 -114 -1 -140 17
-31 46 -22 87 28 112 137 145 163 211 163 52 0 82 -32 82 -87 0 -48 -9 -56
-75 -72 -143 -35 -283 -135 -324 -231 -44 -102 -40 -188 12 -247 40 -46 82
-63 152 -63 64 0 111 17 163 60 48 39 68 38 82 -4 6 -19 18 -37 26 -40 9 -3
76 -6 150 -6 l134 0 -17 27 c-16 23 -19 60 -23 263 -5 230 -6 236 -32 285 -35
66 -80 108 -153 142 -52 24 -74 28 -165 30 -62 1 -126 -3 -156 -11z m227 -301
c10 -47 10 -196 -1 -240 -11 -49 -41 -75 -87 -75 -91 0 -125 161 -58 277 30
49 67 74 110 70 24 -2 31 -8 36 -32z"/>
<path d="M711 1760 c-32 -88 -103 -159 -191 -191 -61 -22 -63 -24 -35 -29 98
-21 190 -103 226 -201 22 -60 24 -62 30 -34 22 106 128 212 234 234 28 6 26 8
-34 30 -98 36 -180 128 -201 226 -5 28 -7 26 -29 -35z m-46 -214 c0 -15 -4
-21 -9 -16 -5 5 -6 16 -3 24 9 22 12 20 12 -8z m125 -5 c0 -4 -6 -8 -14 -8 -8
0 -12 6 -9 14 5 13 23 9 23 -6z m-40 1 c0 -4 -9 -8 -20 -9 -11 -1 -20 2 -20 5
0 4 9 8 20 9 11 1 20 -2 20 -5z m57 -14 c-3 -8 -6 -5 -6 6 -1 11 2 17 5 13 3
-3 4 -12 1 -19z"/>
</g>
</svg>
